<svg id="Layer_2" data-name="Layer 2" xmlns="http://www.w3.org/2000/svg" width="56.311" height="57.328" viewBox="0 0 56.311 57.328">
  <g id="Layer_1" data-name="Layer 1">
    <path id="Caminho_1" data-name="Caminho 1" d="M56.3,89.518H5.506A5.506,5.506,0,0,1,0,84.012V32.19H50.475a5.836,5.836,0,0,1,5.836,5.836Z" transform="translate(0 -32.19)" fill="#1e2019"/>
    <path id="Caminho_2" data-name="Caminho 2" d="M13,91.211V89.448L27.193,82.22v2.826l-10.888,5.24.088-.175v.417l-.088-.175L27.193,95.6v2.822Z" transform="translate(-7.581 -61.365)" fill="#d3d0cb"/>
    <path id="Caminho_3" data-name="Caminho 3" d="M65.894,66.15,58.641,93.182h-2.4L63.514,66.15Z" transform="translate(-32.797 -51.994)" fill="#d3d0cb"/>
    <path id="Caminho_4" data-name="Caminho 4" d="M102.793,91.211,88.6,98.439V95.617l10.888-5.244-.088.175v-.417l.088.175L88.6,85.046V82.22l14.193,7.228Z" transform="translate(-51.668 -61.365)" fill="#d3d0cb"/>
  </g>
</svg>

